<?xml version="1.0" encoding="UTF-8" ?>
<!DOCTYPE svg PUBLIC "-//W3C//DTD SVG 1.1//EN" "http://www.w3.org/Graphics/SVG/1.1/DTD/svg11.dtd">
<svg width="1278pt" height="119pt" viewBox="0 0 1278 119" version="1.1" xmlns="http://www.w3.org/2000/svg">
<g id="#ffffffff">
</g>
<g id="#282828ff">
<path fill="#282828" opacity="1.00" d=" M 583.11 13.13 C 593.82 6.37 607.50 5.85 619.39 9.50 C 625.82 11.49 632.07 15.88 634.16 22.56 C 636.77 31.00 634.66 41.02 628.22 47.22 C 625.32 50.29 621.59 52.37 617.77 54.08 C 620.45 60.24 621.29 66.97 623.64 73.24 C 624.46 75.16 625.50 77.81 628.01 77.80 C 631.15 77.25 633.35 74.67 635.66 72.67 C 637.86 70.40 640.87 68.42 641.37 65.04 C 643.46 55.04 649.00 45.22 658.21 40.23 C 664.12 37.21 671.69 35.80 677.75 39.18 C 683.99 43.06 683.60 52.79 678.40 57.38 C 672.23 62.97 663.72 64.40 656.40 67.90 C 656.49 70.90 656.55 74.77 659.75 76.21 C 668.62 80.82 679.13 76.22 685.71 69.71 C 688.03 68.04 688.08 65.03 688.81 62.52 C 691.11 52.80 698.12 44.49 706.93 39.96 C 713.23 37.16 720.64 36.65 727.18 38.97 C 728.54 37.75 729.69 35.45 731.88 36.04 C 736.33 36.99 740.41 40.53 741.54 44.99 C 740.76 48.70 738.00 51.62 736.89 55.21 C 736.01 60.43 736.27 65.75 736.24 71.01 C 736.13 73.53 736.82 75.96 737.86 78.23 C 742.50 76.45 746.05 72.85 749.50 69.42 C 751.41 67.77 751.57 65.14 752.21 62.87 C 754.90 52.07 762.67 42.15 773.38 38.46 C 777.41 37.12 782.26 36.40 786.05 38.80 C 789.80 41.92 788.72 48.27 785.54 51.43 C 783.16 53.65 780.42 50.93 778.23 49.83 C 775.44 47.82 772.22 50.44 770.85 52.89 C 767.68 58.24 766.67 64.65 766.69 70.79 C 767.11 77.44 775.85 79.70 780.97 76.89 C 785.92 74.01 789.62 69.51 793.52 65.42 C 795.08 64.10 794.99 61.94 795.26 60.10 C 795.61 55.72 796.50 51.42 797.48 47.16 C 795.34 47.09 793.22 47.01 791.11 46.88 C 791.07 43.68 791.77 40.53 793.73 37.93 C 795.79 37.92 797.88 37.90 799.96 37.85 C 801.54 33.07 803.07 28.15 806.03 24.02 C 807.39 22.14 809.59 20.16 812.11 21.09 C 815.73 22.23 816.90 26.49 817.51 29.81 C 816.20 32.54 814.55 35.07 813.04 37.68 C 817.16 37.99 821.30 37.86 825.43 38.10 C 825.21 41.21 824.37 44.22 823.23 47.11 C 819.20 47.05 815.19 46.88 811.18 46.60 C 809.94 52.99 809.27 59.47 808.83 65.96 C 808.65 69.69 808.64 73.54 809.97 77.09 C 810.97 77.93 812.33 77.87 813.47 77.32 C 816.60 76.06 819.45 74.21 822.19 72.25 C 825.63 69.90 827.79 66.18 831.27 63.87 C 834.16 69.24 830.80 75.17 827.07 79.11 C 821.34 85.13 813.52 90.08 805.01 90.21 C 797.79 89.96 795.70 81.37 795.21 75.52 C 790.23 84.96 779.65 90.98 768.99 90.54 C 761.88 90.75 754.62 86.86 751.73 80.20 C 746.23 85.63 739.06 90.63 730.99 90.15 C 726.31 89.30 725.31 83.85 724.13 80.06 C 720.13 86.67 712.86 91.14 705.02 90.82 C 697.58 91.42 690.41 86.73 687.93 79.70 C 682.48 85.59 674.92 89.29 666.96 90.13 C 660.46 90.81 653.24 91.14 647.57 87.33 C 644.78 85.56 643.07 82.67 641.55 79.84 C 635.87 85.53 628.44 90.85 620.01 90.15 C 615.48 90.13 611.94 86.38 610.84 82.22 C 608.45 73.61 608.54 64.54 606.39 55.87 C 604.10 54.91 601.48 54.16 599.96 52.04 C 598.84 50.48 599.46 48.47 599.44 46.70 C 603.25 44.31 607.97 44.20 612.07 45.95 C 615.95 42.33 618.97 37.44 618.65 31.94 C 619.08 27.53 617.45 22.80 613.61 20.35 C 609.08 17.20 603.30 17.74 598.09 17.86 C 591.24 17.95 584.97 21.02 579.05 24.16 C 577.20 25.24 575.03 25.25 572.96 25.32 C 573.74 19.71 578.72 16.05 583.11 13.13 M 703.46 66.92 C 703.08 70.97 702.58 76.72 707.03 78.77 C 715.12 80.96 721.93 73.13 723.35 65.87 C 723.45 58.76 723.95 51.64 725.59 44.70 C 714.80 46.94 704.62 55.49 703.46 66.92 M 662.68 47.75 C 658.88 50.75 658.29 55.95 657.27 60.36 C 661.34 57.43 668.03 55.73 668.84 50.06 C 669.48 46.62 664.72 46.23 662.68 47.75 Z" />
<path fill="#282828" opacity="1.00" d=" M 999.89 12.89 C 1006.73 6.26 1018.06 4.91 1026.24 9.78 C 1032.25 13.41 1033.67 21.39 1032.18 27.79 C 1030.42 33.53 1024.97 37.11 1019.35 38.39 C 1024.72 42.49 1030.06 47.21 1032.68 53.60 C 1035.47 60.79 1035.27 69.38 1031.02 75.96 C 1025.30 85.16 1014.40 89.90 1003.92 90.72 C 996.17 91.00 987.39 88.93 982.75 82.19 C 976.20 72.55 979.15 58.18 988.43 51.36 C 991.04 49.48 995.01 49.13 997.40 51.56 C 996.63 58.13 993.33 64.78 995.42 71.42 C 996.16 74.40 999.09 76.30 1002.07 76.43 C 1006.16 76.59 1010.82 75.83 1013.63 72.54 C 1017.07 68.64 1017.12 62.57 1014.67 58.14 C 1011.67 52.73 1006.55 49.06 1002.16 44.88 C 997.72 40.39 993.90 34.51 994.18 27.96 C 993.94 22.45 995.68 16.64 999.89 12.89 M 1006.32 21.45 C 1008.15 27.13 1011.91 31.83 1016.28 35.78 C 1020.06 31.88 1023.52 26.63 1022.44 20.94 C 1018.71 15.78 1010.10 16.77 1006.32 21.45 Z" />
<path fill="#282828" opacity="1.00" d=" M 1060.64 12.80 C 1061.65 10.90 1062.69 8.48 1065.05 8.00 C 1066.92 7.53 1068.80 8.67 1069.77 10.24 C 1071.78 13.41 1073.03 17.25 1072.44 21.03 C 1071.50 26.99 1068.02 32.07 1065.02 37.17 C 1063.04 40.31 1062.75 44.12 1062.04 47.67 C 1065.42 42.95 1070.02 38.60 1076.00 37.72 C 1081.32 37.05 1087.60 37.37 1091.55 41.51 C 1094.96 45.10 1094.80 50.44 1094.30 55.04 C 1093.60 62.22 1090.66 68.97 1089.81 76.11 C 1089.96 78.98 1093.09 77.47 1094.46 76.40 C 1097.69 73.72 1100.86 70.83 1103.43 67.50 C 1104.59 64.20 1105.02 60.67 1106.47 57.45 C 1109.68 49.98 1115.65 43.71 1122.87 39.98 C 1129.18 37.16 1136.62 36.64 1143.18 38.97 C 1144.55 37.73 1145.72 35.41 1147.94 36.06 C 1152.39 37.02 1156.46 40.59 1157.56 45.06 C 1156.68 48.72 1154.03 51.64 1152.89 55.20 C 1152.01 60.40 1152.27 65.71 1152.24 70.97 C 1152.13 73.50 1152.80 75.94 1153.85 78.22 C 1159.18 76.21 1162.97 71.80 1166.97 67.96 C 1168.36 66.40 1170.28 65.02 1170.64 62.82 C 1171.59 58.12 1173.06 53.53 1175.26 49.27 C 1172.66 46.45 1169.46 43.17 1170.40 38.95 C 1170.87 33.79 1177.62 32.30 1181.57 34.46 C 1185.31 36.74 1187.13 40.99 1188.45 44.99 C 1190.64 45.13 1192.87 45.38 1195.07 44.94 C 1198.57 44.20 1201.47 41.85 1204.92 40.97 C 1208.50 42.70 1210.09 47.08 1210.77 50.75 C 1209.25 59.87 1205.02 68.45 1204.45 77.76 C 1208.31 78.07 1210.91 74.87 1213.49 72.51 C 1215.08 70.86 1217.14 69.30 1217.50 66.87 C 1219.10 58.19 1222.85 49.54 1229.68 43.71 C 1235.27 38.84 1243.12 36.13 1250.48 37.70 C 1253.82 38.32 1256.79 40.64 1258.12 43.79 C 1259.54 48.32 1258.79 53.81 1255.12 57.09 C 1249.08 62.96 1240.38 64.29 1233.03 67.85 C 1233.33 70.30 1232.73 73.34 1234.84 75.15 C 1238.44 78.23 1243.60 78.43 1248.07 77.69 C 1254.77 76.27 1260.38 71.90 1264.95 66.97 C 1266.06 65.61 1267.54 64.72 1269.22 64.18 C 1270.42 70.69 1267.28 77.26 1262.50 81.56 C 1254.26 89.48 1241.96 91.60 1230.98 90.07 C 1225.64 89.31 1221.12 85.77 1218.59 81.08 C 1214.15 86.64 1207.41 91.23 1199.98 90.10 C 1194.70 89.39 1192.30 83.66 1191.74 78.99 C 1191.05 70.63 1192.95 62.12 1196.70 54.65 C 1193.38 55.30 1190.01 55.35 1186.66 55.25 C 1185.64 59.88 1184.31 64.46 1183.78 69.19 C 1183.34 74.87 1184.71 80.52 1184.30 86.21 C 1182.99 89.56 1179.43 91.33 1176.03 91.66 C 1174.25 92.01 1171.98 91.65 1171.09 89.91 C 1169.18 85.99 1169.62 81.49 1169.65 77.26 C 1166.04 83.11 1159.98 87.14 1153.59 89.38 C 1150.58 90.15 1146.81 91.10 1144.20 88.86 C 1141.75 86.57 1141.09 83.13 1140.14 80.07 C 1136.11 86.67 1128.85 91.15 1121.00 90.82 C 1113.69 91.39 1106.64 86.88 1104.05 80.05 C 1100.72 84.03 1095.77 85.95 1091.30 88.29 C 1088.06 89.99 1084.03 91.19 1080.62 89.27 C 1076.82 86.92 1076.38 82.00 1075.95 77.99 C 1075.64 71.87 1076.89 65.80 1078.37 59.90 C 1078.98 57.00 1079.93 53.98 1079.14 51.02 C 1076.75 47.82 1071.84 48.74 1069.32 51.29 C 1064.91 55.46 1062.25 61.18 1060.49 66.91 C 1058.39 72.52 1061.50 78.45 1059.97 84.13 C 1059.05 88.31 1054.64 90.24 1050.98 91.43 C 1046.77 92.40 1044.89 87.37 1044.63 84.06 C 1043.90 68.40 1045.51 52.51 1050.41 37.58 C 1053.13 29.05 1056.67 20.81 1060.64 12.80 M 1119.46 66.89 C 1119.07 70.96 1118.58 76.76 1123.07 78.78 C 1131.17 80.93 1137.96 73.09 1139.35 65.83 C 1139.44 58.73 1139.96 51.63 1141.59 44.70 C 1130.81 46.94 1120.63 55.48 1119.46 66.89 M 1238.45 48.37 C 1235.34 51.52 1234.63 56.13 1233.91 60.30 C 1237.27 58.25 1240.89 56.47 1243.75 53.70 C 1245.24 52.13 1246.49 49.13 1244.46 47.50 C 1242.54 46.54 1239.94 46.76 1238.45 48.37 Z" />
<path fill="#282828" opacity="1.00" d=" M 879.64 19.66 C 885.80 12.80 896.05 11.43 904.63 13.61 C 911.05 15.32 917.44 19.99 918.47 26.96 C 918.58 29.34 919.37 32.72 916.96 34.22 C 913.26 32.83 911.60 28.76 908.19 26.89 C 904.09 23.99 897.65 22.80 893.97 26.99 C 889.98 31.91 891.21 39.51 895.71 43.72 C 900.60 43.58 907.31 43.28 909.49 48.77 C 909.20 49.54 908.62 51.07 908.33 51.84 C 903.56 54.69 897.79 54.59 892.50 53.61 C 885.65 58.04 883.63 69.35 890.00 75.00 C 896.71 81.12 908.72 80.79 914.34 73.33 C 918.74 67.49 918.22 59.58 916.39 52.88 C 915.77 50.57 914.95 46.87 918.18 46.21 C 923.74 45.37 929.42 46.10 934.98 45.06 C 938.49 44.73 941.68 42.70 945.29 43.09 C 946.48 48.27 942.61 53.20 937.91 54.88 C 934.40 55.47 930.84 54.87 927.38 54.27 C 928.84 62.46 928.07 71.38 923.72 78.62 C 918.94 86.40 909.90 90.83 900.92 91.13 C 892.71 91.47 883.92 90.65 876.96 85.91 C 871.15 82.02 867.29 75.04 868.26 67.95 C 868.41 58.85 875.51 51.44 883.73 48.47 C 875.15 42.03 872.90 28.15 879.64 19.66 Z" />
<path fill="#282828" opacity="1.00" d=" M 393.46 17.00 C 395.90 17.00 398.34 17.00 400.79 17.00 C 400.79 41.33 400.78 65.66 400.79 90.00 C 398.79 90.00 396.80 90.00 394.81 90.00 C 394.50 87.64 394.21 85.28 393.90 82.91 C 388.94 89.09 380.75 92.35 372.92 90.60 C 366.23 89.66 360.66 84.67 358.31 78.45 C 355.73 71.93 355.89 64.74 356.49 57.87 C 357.38 49.65 362.41 41.12 370.82 38.91 C 379.09 36.28 388.57 39.20 393.82 46.12 C 393.17 36.43 393.58 26.71 393.46 17.00 M 373.23 45.23 C 368.68 46.78 365.95 51.28 364.83 55.73 C 363.30 62.18 363.31 69.09 365.33 75.44 C 366.71 79.81 370.38 83.59 375.04 84.27 C 380.42 85.05 387.06 84.33 390.38 79.46 C 393.70 74.34 393.57 67.92 393.41 62.05 C 393.10 57.19 392.41 51.85 388.96 48.14 C 384.86 44.24 378.45 43.72 373.23 45.23 Z" />
<path fill="#282828" opacity="1.00" d=" M 442.61 17.00 C 445.15 17.00 447.70 17.00 450.25 17.00 C 450.18 26.65 450.41 36.31 450.07 45.96 C 457.29 35.78 474.30 35.19 482.08 44.96 C 487.26 51.39 488.03 60.10 487.55 68.04 C 487.14 75.27 484.52 82.95 478.48 87.38 C 469.68 93.57 456.28 91.67 449.82 82.95 C 449.21 85.28 448.61 87.62 448.08 89.97 C 446.25 89.98 444.43 90.00 442.61 90.01 C 442.61 65.68 442.61 41.34 442.61 17.00 M 459.21 45.29 C 455.91 46.34 453.14 48.92 452.00 52.21 C 449.92 57.85 450.08 64.02 450.50 69.92 C 450.96 75.00 452.78 80.81 457.83 83.05 C 463.49 85.40 471.23 85.42 475.53 80.44 C 479.21 75.85 479.90 69.68 479.79 63.99 C 479.80 58.62 479.24 52.70 475.61 48.45 C 471.57 43.90 464.67 43.83 459.21 45.29 Z" />
<path fill="#282828" opacity="1.00" d=" M 22.61 21.00 C 32.80 21.38 43.29 19.82 53.20 22.86 C 59.07 24.60 64.03 29.44 65.21 35.55 C 66.15 41.10 66.00 47.21 63.03 52.17 C 60.30 56.92 55.33 59.98 50.13 61.36 C 43.66 63.18 36.89 62.77 30.25 62.79 C 30.25 71.86 30.25 80.93 30.25 90.00 C 27.70 90.00 25.16 90.00 22.61 90.00 C 22.61 67.00 22.61 44.00 22.61 21.00 M 30.24 27.80 C 30.25 37.20 30.25 46.60 30.24 55.99 C 36.91 55.85 43.90 56.76 50.22 54.11 C 60.29 50.49 60.57 33.35 50.45 29.60 C 44.04 27.06 36.97 28.00 30.24 27.80 Z" />
<path fill="#282828" opacity="1.00" d=" M 588.36 31.39 C 590.26 27.85 593.41 24.93 597.44 24.13 C 598.91 27.88 598.37 31.97 597.78 35.85 C 596.43 45.01 593.13 53.74 591.60 62.86 C 590.96 69.61 591.79 76.42 591.20 83.17 C 590.30 88.41 584.46 90.40 579.97 91.49 C 577.00 92.29 574.97 89.44 574.65 86.85 C 573.28 77.38 575.36 67.85 577.81 58.73 C 580.50 49.33 583.59 39.95 588.36 31.39 Z" />
<path fill="#282828" opacity="1.00" d=" M 94.45 38.55 C 102.35 36.89 111.46 38.86 116.92 45.11 C 123.05 52.06 124.25 62.07 122.83 70.93 C 121.83 77.84 118.13 84.68 111.83 88.07 C 103.88 92.25 93.50 92.08 86.08 86.81 C 80.38 82.75 77.34 75.87 76.60 69.06 C 75.96 62.25 76.45 55.02 79.83 48.93 C 82.80 43.48 88.32 39.55 94.45 38.55 M 94.21 45.31 C 88.34 46.98 85.09 53.11 84.51 58.84 C 83.99 65.17 83.75 72.03 86.99 77.74 C 92.13 87.21 108.41 86.88 113.04 77.08 C 115.66 71.81 115.75 65.73 115.32 59.98 C 114.75 54.90 112.83 49.40 108.22 46.63 C 104.02 44.22 98.80 44.02 94.21 45.31 Z" />
<path fill="#282828" opacity="1.00" d=" M 214.28 46.37 C 221.57 35.96 239.02 34.97 247.06 44.98 C 252.01 50.86 252.55 58.92 252.26 66.27 C 240.37 66.31 228.49 66.19 216.61 66.34 C 217.07 72.60 219.09 79.75 225.32 82.57 C 233.30 85.91 242.33 83.80 250.16 80.99 C 250.16 83.20 250.17 85.41 250.19 87.63 C 241.72 91.15 231.87 92.40 223.12 89.12 C 215.61 86.24 210.45 78.81 209.48 70.93 C 208.55 62.56 209.07 53.36 214.28 46.37 M 224.87 45.87 C 219.64 48.48 217.51 54.47 216.97 59.94 C 226.11 60.02 235.25 60.09 244.39 59.90 C 243.84 56.10 243.69 51.93 241.13 48.84 C 237.47 43.90 230.10 43.42 224.87 45.87 Z" />
<path fill="#282828" opacity="1.00" d=" M 283.28 39.23 C 286.96 37.58 291.06 37.92 294.95 38.43 C 294.75 40.81 294.51 43.19 294.27 45.58 C 290.57 45.03 286.58 44.44 283.09 46.13 C 276.99 48.86 273.32 55.57 273.40 62.13 C 273.35 71.42 273.41 80.71 273.39 90.00 C 270.84 90.00 268.30 90.00 265.75 90.00 C 265.75 72.99 265.75 55.98 265.75 38.97 C 267.88 39.00 270.01 39.02 272.14 39.08 C 272.35 42.22 272.59 45.36 272.91 48.49 C 276.00 45.04 278.78 40.94 283.28 39.23 Z" />
<path fill="#282828" opacity="1.00" d=" M 307.26 46.39 C 314.54 35.97 332.01 34.96 340.06 44.97 C 345.00 50.86 345.55 58.92 345.26 66.27 C 333.37 66.30 321.49 66.19 309.61 66.33 C 310.07 72.60 312.09 79.75 318.32 82.57 C 326.30 85.91 335.33 83.80 343.16 80.99 C 343.16 83.20 343.16 85.41 343.19 87.63 C 334.97 91.05 325.49 92.31 316.93 89.42 C 309.00 86.77 303.46 79.08 302.48 70.91 C 301.54 62.56 302.08 53.37 307.26 46.39 M 317.97 45.82 C 312.68 48.40 310.51 54.43 309.97 59.94 C 319.10 60.04 328.23 60.05 337.36 59.93 C 336.84 56.12 336.71 51.95 334.13 48.85 C 330.51 43.93 323.20 43.44 317.97 45.82 Z" />
<path fill="#282828" opacity="1.00" d=" M 130.10 39.02 C 132.74 38.99 135.38 39.01 138.02 39.07 C 141.51 53.56 145.67 67.89 148.86 82.45 C 152.37 67.73 157.83 53.59 162.09 39.09 C 164.84 39.00 167.60 38.99 170.36 39.00 C 174.64 53.46 180.07 67.61 183.28 82.36 C 187.02 67.90 190.72 53.43 194.58 39.00 C 197.17 39.00 199.76 39.00 202.35 39.00 C 197.59 55.99 192.89 73.01 188.17 90.01 C 185.13 90.01 182.09 90.01 179.06 89.90 C 174.81 75.51 169.89 61.33 166.03 46.83 C 162.73 61.51 157.15 75.51 152.90 89.91 C 149.92 90.02 146.94 90.01 143.96 89.96 C 139.53 72.93 134.61 56.03 130.10 39.02 Z" />
<path fill="#282828" opacity="1.00" d=" M 493.23 39.01 C 495.91 39.00 498.59 39.00 501.27 38.99 C 506.65 53.68 513.34 67.95 517.30 83.12 C 522.41 68.38 527.76 53.73 533.00 39.04 C 535.73 38.99 538.45 39.00 541.18 39.05 C 533.49 58.88 526.09 78.83 518.46 98.69 C 516.30 103.93 513.15 109.45 507.60 111.64 C 503.22 113.58 498.32 113.10 493.76 112.17 C 493.75 110.16 493.74 108.14 493.73 106.13 C 497.98 106.82 502.82 107.25 506.43 104.42 C 510.60 101.02 511.91 95.49 513.72 90.67 C 513.50 88.50 512.40 86.55 511.65 84.54 C 505.46 69.38 499.39 54.18 493.23 39.01 Z" />
</g>
</svg>
